<mxfile host="app.diagrams.net" modified="2023-04-12T01:33:55.742Z" agent="Mozilla/5.0 (Windows NT 10.0; Win64; x64) AppleWebKit/537.36 (KHTML, like Gecko) Chrome/111.0.0.0 Safari/537.36" etag="RRJ3RkT66BCYtFGWQQ9h" version="21.1.6" type="device">
  <diagram name="PÃ¡gina-1" id="I9aDPNAOY4ASYPq2RcHo">
    <mxGraphModel dx="1434" dy="756" grid="1" gridSize="10" guides="1" tooltips="1" connect="1" arrows="1" fold="1" page="1" pageScale="1" pageWidth="827" pageHeight="1169" math="0" shadow="0">
      <root>
        <mxCell id="0" />
        <mxCell id="1" parent="0" />
        <mxCell id="mmZKojDoR1NTbuqDDgLx-1" value="Helado" style="rounded=0;whiteSpace=wrap;html=1;" parent="1" vertex="1">
          <mxGeometry x="579" y="365" width="120" height="60" as="geometry" />
        </mxCell>
        <mxCell id="mmZKojDoR1NTbuqDDgLx-2" value="Empleado" style="rounded=0;whiteSpace=wrap;html=1;" parent="1" vertex="1">
          <mxGeometry x="239" y="365" width="120" height="60" as="geometry" />
        </mxCell>
        <mxCell id="seowYHQaQCigLh1WMPsB-1" value="Cliente" style="rounded=0;whiteSpace=wrap;html=1;" parent="1" vertex="1">
          <mxGeometry x="579" y="155" width="120" height="60" as="geometry" />
        </mxCell>
        <mxCell id="seowYHQaQCigLh1WMPsB-2" value="Proveedor" style="rounded=0;whiteSpace=wrap;html=1;" parent="1" vertex="1">
          <mxGeometry x="579" y="585" width="120" height="60" as="geometry" />
        </mxCell>
        <mxCell id="seowYHQaQCigLh1WMPsB-3" value="Boleta" style="rounded=0;whiteSpace=wrap;html=1;" parent="1" vertex="1">
          <mxGeometry x="239" y="155" width="120" height="60" as="geometry" />
        </mxCell>
        <mxCell id="seowYHQaQCigLh1WMPsB-4" value="Vende" style="rhombus;whiteSpace=wrap;html=1;" parent="1" vertex="1">
          <mxGeometry x="423" y="355" width="80" height="80" as="geometry" />
        </mxCell>
        <mxCell id="seowYHQaQCigLh1WMPsB-6" value="" style="endArrow=none;html=1;rounded=0;entryX=0;entryY=0.5;entryDx=0;entryDy=0;exitX=1;exitY=0.5;exitDx=0;exitDy=0;" parent="1" source="seowYHQaQCigLh1WMPsB-4" target="mmZKojDoR1NTbuqDDgLx-1" edge="1">
          <mxGeometry width="50" height="50" relative="1" as="geometry">
            <mxPoint x="439" y="545" as="sourcePoint" />
            <mxPoint x="489" y="495" as="targetPoint" />
          </mxGeometry>
        </mxCell>
        <mxCell id="seowYHQaQCigLh1WMPsB-7" value="" style="endArrow=none;html=1;rounded=0;entryX=0.5;entryY=1;entryDx=0;entryDy=0;exitX=0.5;exitY=0;exitDx=0;exitDy=0;" parent="1" source="seowYHQaQCigLh1WMPsB-8" target="mmZKojDoR1NTbuqDDgLx-1" edge="1">
          <mxGeometry width="50" height="50" relative="1" as="geometry">
            <mxPoint x="669" y="415" as="sourcePoint" />
            <mxPoint x="489" y="495" as="targetPoint" />
          </mxGeometry>
        </mxCell>
        <mxCell id="seowYHQaQCigLh1WMPsB-8" value="Provee" style="rhombus;whiteSpace=wrap;html=1;" parent="1" vertex="1">
          <mxGeometry x="599" y="465" width="80" height="80" as="geometry" />
        </mxCell>
        <mxCell id="seowYHQaQCigLh1WMPsB-9" value="" style="endArrow=none;html=1;rounded=0;entryX=0.5;entryY=1;entryDx=0;entryDy=0;exitX=0.5;exitY=0;exitDx=0;exitDy=0;" parent="1" source="seowYHQaQCigLh1WMPsB-2" target="seowYHQaQCigLh1WMPsB-8" edge="1">
          <mxGeometry width="50" height="50" relative="1" as="geometry">
            <mxPoint x="439" y="545" as="sourcePoint" />
            <mxPoint x="489" y="495" as="targetPoint" />
          </mxGeometry>
        </mxCell>
        <mxCell id="seowYHQaQCigLh1WMPsB-11" value="Compra" style="rhombus;whiteSpace=wrap;html=1;" parent="1" vertex="1">
          <mxGeometry x="599" y="245" width="80" height="80" as="geometry" />
        </mxCell>
        <mxCell id="seowYHQaQCigLh1WMPsB-12" value="" style="endArrow=none;html=1;rounded=0;entryX=0.5;entryY=1;entryDx=0;entryDy=0;exitX=0.5;exitY=0;exitDx=0;exitDy=0;" parent="1" source="seowYHQaQCigLh1WMPsB-11" target="seowYHQaQCigLh1WMPsB-1" edge="1">
          <mxGeometry width="50" height="50" relative="1" as="geometry">
            <mxPoint x="439" y="545" as="sourcePoint" />
            <mxPoint x="489" y="495" as="targetPoint" />
          </mxGeometry>
        </mxCell>
        <mxCell id="seowYHQaQCigLh1WMPsB-13" value="" style="endArrow=none;html=1;rounded=0;entryX=0.5;entryY=1;entryDx=0;entryDy=0;exitX=0.5;exitY=0;exitDx=0;exitDy=0;" parent="1" source="mmZKojDoR1NTbuqDDgLx-1" target="seowYHQaQCigLh1WMPsB-11" edge="1">
          <mxGeometry width="50" height="50" relative="1" as="geometry">
            <mxPoint x="439" y="545" as="sourcePoint" />
            <mxPoint x="489" y="495" as="targetPoint" />
          </mxGeometry>
        </mxCell>
        <mxCell id="seowYHQaQCigLh1WMPsB-14" value="Realiza" style="rhombus;whiteSpace=wrap;html=1;" parent="1" vertex="1">
          <mxGeometry x="259" y="245" width="80" height="80" as="geometry" />
        </mxCell>
        <mxCell id="seowYHQaQCigLh1WMPsB-15" value="" style="endArrow=none;html=1;rounded=0;entryX=0.5;entryY=1;entryDx=0;entryDy=0;exitX=0.5;exitY=0;exitDx=0;exitDy=0;" parent="1" source="seowYHQaQCigLh1WMPsB-14" target="seowYHQaQCigLh1WMPsB-3" edge="1">
          <mxGeometry width="50" height="50" relative="1" as="geometry">
            <mxPoint x="439" y="545" as="sourcePoint" />
            <mxPoint x="489" y="495" as="targetPoint" />
          </mxGeometry>
        </mxCell>
        <mxCell id="seowYHQaQCigLh1WMPsB-16" value="" style="endArrow=none;html=1;rounded=0;entryX=0.5;entryY=1;entryDx=0;entryDy=0;exitX=0.5;exitY=0;exitDx=0;exitDy=0;" parent="1" source="mmZKojDoR1NTbuqDDgLx-2" target="seowYHQaQCigLh1WMPsB-14" edge="1">
          <mxGeometry width="50" height="50" relative="1" as="geometry">
            <mxPoint x="309" y="355" as="sourcePoint" />
            <mxPoint x="339" y="485" as="targetPoint" />
          </mxGeometry>
        </mxCell>
        <mxCell id="seowYHQaQCigLh1WMPsB-17" value="Recibe" style="rhombus;whiteSpace=wrap;html=1;" parent="1" vertex="1">
          <mxGeometry x="423" y="145" width="80" height="80" as="geometry" />
        </mxCell>
        <mxCell id="seowYHQaQCigLh1WMPsB-18" value="" style="endArrow=none;html=1;rounded=0;entryX=0;entryY=0.5;entryDx=0;entryDy=0;exitX=1;exitY=0.5;exitDx=0;exitDy=0;" parent="1" source="seowYHQaQCigLh1WMPsB-17" target="seowYHQaQCigLh1WMPsB-1" edge="1">
          <mxGeometry width="50" height="50" relative="1" as="geometry">
            <mxPoint x="439" y="545" as="sourcePoint" />
            <mxPoint x="489" y="495" as="targetPoint" />
          </mxGeometry>
        </mxCell>
        <mxCell id="seowYHQaQCigLh1WMPsB-19" value="" style="endArrow=none;html=1;rounded=0;entryX=0;entryY=0.5;entryDx=0;entryDy=0;exitX=1;exitY=0.5;exitDx=0;exitDy=0;" parent="1" source="seowYHQaQCigLh1WMPsB-3" target="seowYHQaQCigLh1WMPsB-17" edge="1">
          <mxGeometry width="50" height="50" relative="1" as="geometry">
            <mxPoint x="439" y="545" as="sourcePoint" />
            <mxPoint x="489" y="495" as="targetPoint" />
          </mxGeometry>
        </mxCell>
        <mxCell id="seowYHQaQCigLh1WMPsB-20" value="&lt;u&gt;Rut&lt;/u&gt;" style="ellipse;whiteSpace=wrap;html=1;" parent="1" vertex="1">
          <mxGeometry x="64" y="375" width="90" height="40" as="geometry" />
        </mxCell>
        <mxCell id="seowYHQaQCigLh1WMPsB-21" value="Cargo" style="ellipse;whiteSpace=wrap;html=1;" parent="1" vertex="1">
          <mxGeometry x="90" y="317.5" width="90" height="45" as="geometry" />
        </mxCell>
        <mxCell id="seowYHQaQCigLh1WMPsB-22" value="Jornada" style="ellipse;whiteSpace=wrap;html=1;" parent="1" vertex="1">
          <mxGeometry x="134.5" y="425" width="90" height="45" as="geometry" />
        </mxCell>
        <mxCell id="seowYHQaQCigLh1WMPsB-23" value="Nombre" style="ellipse;whiteSpace=wrap;html=1;" parent="1" vertex="1">
          <mxGeometry x="350" y="500" width="90" height="45" as="geometry" />
        </mxCell>
        <mxCell id="seowYHQaQCigLh1WMPsB-27" style="edgeStyle=orthogonalEdgeStyle;rounded=0;orthogonalLoop=1;jettySize=auto;html=1;exitX=0.5;exitY=1;exitDx=0;exitDy=0;" parent="1" edge="1">
          <mxGeometry relative="1" as="geometry">
            <mxPoint x="129" y="515" as="sourcePoint" />
            <mxPoint x="129" y="515" as="targetPoint" />
          </mxGeometry>
        </mxCell>
        <mxCell id="seowYHQaQCigLh1WMPsB-28" value="" style="endArrow=none;html=1;rounded=0;entryX=0.25;entryY=0.911;entryDx=0;entryDy=0;exitX=1;exitY=0;exitDx=0;exitDy=0;entryPerimeter=0;" parent="1" source="seowYHQaQCigLh1WMPsB-95" target="seowYHQaQCigLh1WMPsB-22" edge="1">
          <mxGeometry relative="1" as="geometry">
            <mxPoint x="130" y="510" as="sourcePoint" />
            <mxPoint x="569" y="550" as="targetPoint" />
          </mxGeometry>
        </mxCell>
        <mxCell id="seowYHQaQCigLh1WMPsB-30" value="" style="endArrow=none;html=1;rounded=0;exitX=0.971;exitY=0.3;exitDx=0;exitDy=0;entryX=0;entryY=0.5;entryDx=0;entryDy=0;exitPerimeter=0;" parent="1" source="seowYHQaQCigLh1WMPsB-94" target="seowYHQaQCigLh1WMPsB-22" edge="1">
          <mxGeometry relative="1" as="geometry">
            <mxPoint x="101" y="447.5" as="sourcePoint" />
            <mxPoint x="569" y="550" as="targetPoint" />
          </mxGeometry>
        </mxCell>
        <mxCell id="seowYHQaQCigLh1WMPsB-31" value="" style="endArrow=none;html=1;rounded=0;exitX=0.7;exitY=0.022;exitDx=0;exitDy=0;exitPerimeter=0;entryX=0;entryY=1;entryDx=0;entryDy=0;" parent="1" source="seowYHQaQCigLh1WMPsB-22" target="mmZKojDoR1NTbuqDDgLx-2" edge="1">
          <mxGeometry relative="1" as="geometry">
            <mxPoint x="409" y="550" as="sourcePoint" />
            <mxPoint x="569" y="550" as="targetPoint" />
          </mxGeometry>
        </mxCell>
        <mxCell id="seowYHQaQCigLh1WMPsB-32" value="" style="endArrow=none;html=1;rounded=0;exitX=0.5;exitY=0;exitDx=0;exitDy=0;entryX=1;entryY=1;entryDx=0;entryDy=0;" parent="1" source="seowYHQaQCigLh1WMPsB-23" target="mmZKojDoR1NTbuqDDgLx-2" edge="1">
          <mxGeometry relative="1" as="geometry">
            <mxPoint x="409" y="550" as="sourcePoint" />
            <mxPoint x="569" y="550" as="targetPoint" />
          </mxGeometry>
        </mxCell>
        <mxCell id="seowYHQaQCigLh1WMPsB-33" value="" style="endArrow=none;html=1;rounded=0;exitX=0.989;exitY=0.675;exitDx=0;exitDy=0;exitPerimeter=0;entryX=0;entryY=0.5;entryDx=0;entryDy=0;" parent="1" source="seowYHQaQCigLh1WMPsB-20" target="mmZKojDoR1NTbuqDDgLx-2" edge="1">
          <mxGeometry relative="1" as="geometry">
            <mxPoint x="179" y="414" as="sourcePoint" />
            <mxPoint x="569" y="550" as="targetPoint" />
          </mxGeometry>
        </mxCell>
        <mxCell id="seowYHQaQCigLh1WMPsB-34" value="" style="endArrow=none;html=1;rounded=0;exitX=1;exitY=0.5;exitDx=0;exitDy=0;entryX=0;entryY=0;entryDx=0;entryDy=0;" parent="1" source="seowYHQaQCigLh1WMPsB-21" target="mmZKojDoR1NTbuqDDgLx-2" edge="1">
          <mxGeometry relative="1" as="geometry">
            <mxPoint x="179" y="347.5" as="sourcePoint" />
            <mxPoint x="569" y="550" as="targetPoint" />
          </mxGeometry>
        </mxCell>
        <mxCell id="seowYHQaQCigLh1WMPsB-35" value="Fecha" style="ellipse;whiteSpace=wrap;html=1;align=center;" parent="1" vertex="1">
          <mxGeometry x="139" y="140" width="81" height="30" as="geometry" />
        </mxCell>
        <mxCell id="seowYHQaQCigLh1WMPsB-39" value="" style="endArrow=none;html=1;rounded=0;exitX=0.708;exitY=0.08;exitDx=0;exitDy=0;entryX=0.07;entryY=0.75;entryDx=0;entryDy=0;entryPerimeter=0;exitPerimeter=0;" parent="1" source="seowYHQaQCigLh1WMPsB-97" target="seowYHQaQCigLh1WMPsB-35" edge="1">
          <mxGeometry relative="1" as="geometry">
            <mxPoint x="118.93434483929877" y="176.27965319795476" as="sourcePoint" />
            <mxPoint x="490" y="390" as="targetPoint" />
          </mxGeometry>
        </mxCell>
        <mxCell id="seowYHQaQCigLh1WMPsB-40" value="" style="endArrow=none;html=1;rounded=0;entryX=0;entryY=0.5;entryDx=0;entryDy=0;exitX=1;exitY=1;exitDx=0;exitDy=0;" parent="1" source="seowYHQaQCigLh1WMPsB-96" target="seowYHQaQCigLh1WMPsB-35" edge="1">
          <mxGeometry relative="1" as="geometry">
            <mxPoint x="90" y="140" as="sourcePoint" />
            <mxPoint x="490" y="390" as="targetPoint" />
          </mxGeometry>
        </mxCell>
        <mxCell id="seowYHQaQCigLh1WMPsB-41" value="" style="endArrow=none;html=1;rounded=0;exitX=1;exitY=1;exitDx=0;exitDy=0;entryX=0;entryY=0.25;entryDx=0;entryDy=0;" parent="1" source="seowYHQaQCigLh1WMPsB-35" target="seowYHQaQCigLh1WMPsB-3" edge="1">
          <mxGeometry relative="1" as="geometry">
            <mxPoint x="330" y="390" as="sourcePoint" />
            <mxPoint x="490" y="390" as="targetPoint" />
          </mxGeometry>
        </mxCell>
        <mxCell id="seowYHQaQCigLh1WMPsB-42" value="" style="endArrow=none;html=1;rounded=0;exitX=0.358;exitY=0;exitDx=0;exitDy=0;exitPerimeter=0;" parent="1" source="seowYHQaQCigLh1WMPsB-3" target="seowYHQaQCigLh1WMPsB-43" edge="1">
          <mxGeometry relative="1" as="geometry">
            <mxPoint x="330" y="390" as="sourcePoint" />
            <mxPoint x="320" y="120" as="targetPoint" />
          </mxGeometry>
        </mxCell>
        <mxCell id="seowYHQaQCigLh1WMPsB-43" value="Tipo_helado" style="ellipse;whiteSpace=wrap;html=1;align=center;" parent="1" vertex="1">
          <mxGeometry x="229" y="110" width="90" height="30" as="geometry" />
        </mxCell>
        <mxCell id="seowYHQaQCigLh1WMPsB-44" value="&lt;u&gt;Cod_boleta&lt;/u&gt;" style="ellipse;whiteSpace=wrap;html=1;align=center;" parent="1" vertex="1">
          <mxGeometry x="129" y="225" width="91" height="35" as="geometry" />
        </mxCell>
        <mxCell id="seowYHQaQCigLh1WMPsB-45" value="Monto" style="ellipse;whiteSpace=wrap;html=1;align=center;" parent="1" vertex="1">
          <mxGeometry x="333" y="110" width="81" height="30" as="geometry" />
        </mxCell>
        <mxCell id="seowYHQaQCigLh1WMPsB-46" value="" style="endArrow=none;html=1;rounded=0;exitX=1;exitY=0;exitDx=0;exitDy=0;entryX=0.346;entryY=1.067;entryDx=0;entryDy=0;entryPerimeter=0;" parent="1" source="seowYHQaQCigLh1WMPsB-3" target="seowYHQaQCigLh1WMPsB-45" edge="1">
          <mxGeometry relative="1" as="geometry">
            <mxPoint x="330" y="390" as="sourcePoint" />
            <mxPoint x="490" y="390" as="targetPoint" />
          </mxGeometry>
        </mxCell>
        <mxCell id="seowYHQaQCigLh1WMPsB-47" value="" style="endArrow=none;html=1;rounded=0;exitX=1;exitY=0;exitDx=0;exitDy=0;entryX=0;entryY=1;entryDx=0;entryDy=0;" parent="1" source="seowYHQaQCigLh1WMPsB-44" target="seowYHQaQCigLh1WMPsB-3" edge="1">
          <mxGeometry relative="1" as="geometry">
            <mxPoint x="330" y="390" as="sourcePoint" />
            <mxPoint x="490" y="390" as="targetPoint" />
          </mxGeometry>
        </mxCell>
        <mxCell id="seowYHQaQCigLh1WMPsB-48" value="&lt;u&gt;Id_cliente&lt;/u&gt;" style="ellipse;whiteSpace=wrap;html=1;align=center;" parent="1" vertex="1">
          <mxGeometry x="503" y="100" width="87" height="30" as="geometry" />
        </mxCell>
        <mxCell id="seowYHQaQCigLh1WMPsB-49" value="Nombre" style="ellipse;whiteSpace=wrap;html=1;align=center;" parent="1" vertex="1">
          <mxGeometry x="610" y="70" width="80" height="30" as="geometry" />
        </mxCell>
        <mxCell id="seowYHQaQCigLh1WMPsB-50" value="Historial" style="ellipse;whiteSpace=wrap;html=1;align=center;" parent="1" vertex="1">
          <mxGeometry x="720" y="110" width="80" height="30" as="geometry" />
        </mxCell>
        <mxCell id="seowYHQaQCigLh1WMPsB-51" value="&lt;u&gt;Id_proveedor&lt;/u&gt;" style="ellipse;whiteSpace=wrap;html=1;align=center;" parent="1" vertex="1">
          <mxGeometry x="440" y="615" width="80" height="30" as="geometry" />
        </mxCell>
        <mxCell id="seowYHQaQCigLh1WMPsB-52" value="Nombre" style="ellipse;whiteSpace=wrap;html=1;align=center;" parent="1" vertex="1">
          <mxGeometry x="503" y="670" width="70" height="30" as="geometry" />
        </mxCell>
        <mxCell id="seowYHQaQCigLh1WMPsB-53" value="Contactos" style="ellipse;whiteSpace=wrap;html=1;align=center;" parent="1" vertex="1">
          <mxGeometry x="605" y="680" width="90" height="30" as="geometry" />
        </mxCell>
        <mxCell id="seowYHQaQCigLh1WMPsB-55" value="Correo" style="ellipse;whiteSpace=wrap;html=1;align=center;" parent="1" vertex="1">
          <mxGeometry x="650" y="750" width="80" height="30" as="geometry" />
        </mxCell>
        <mxCell id="seowYHQaQCigLh1WMPsB-56" value="" style="endArrow=none;html=1;rounded=0;entryX=0;entryY=1;entryDx=0;entryDy=0;exitX=1;exitY=0.25;exitDx=0;exitDy=0;" parent="1" source="seowYHQaQCigLh1WMPsB-1" target="seowYHQaQCigLh1WMPsB-50" edge="1">
          <mxGeometry relative="1" as="geometry">
            <mxPoint x="330" y="390" as="sourcePoint" />
            <mxPoint x="490" y="390" as="targetPoint" />
          </mxGeometry>
        </mxCell>
        <mxCell id="seowYHQaQCigLh1WMPsB-57" value="" style="endArrow=none;html=1;rounded=0;exitX=0.5;exitY=1;exitDx=0;exitDy=0;entryX=0.567;entryY=0.017;entryDx=0;entryDy=0;entryPerimeter=0;" parent="1" source="seowYHQaQCigLh1WMPsB-49" target="seowYHQaQCigLh1WMPsB-1" edge="1">
          <mxGeometry relative="1" as="geometry">
            <mxPoint x="330" y="390" as="sourcePoint" />
            <mxPoint x="490" y="390" as="targetPoint" />
          </mxGeometry>
        </mxCell>
        <mxCell id="seowYHQaQCigLh1WMPsB-58" value="" style="endArrow=none;html=1;rounded=0;entryX=0;entryY=0;entryDx=0;entryDy=0;exitX=0.77;exitY=1.033;exitDx=0;exitDy=0;exitPerimeter=0;" parent="1" source="seowYHQaQCigLh1WMPsB-48" target="seowYHQaQCigLh1WMPsB-1" edge="1">
          <mxGeometry relative="1" as="geometry">
            <mxPoint x="330" y="390" as="sourcePoint" />
            <mxPoint x="490" y="390" as="targetPoint" />
          </mxGeometry>
        </mxCell>
        <mxCell id="seowYHQaQCigLh1WMPsB-61" value="Sabor_fav" style="ellipse;whiteSpace=wrap;html=1;align=center;" parent="1" vertex="1">
          <mxGeometry x="690" y="30" width="70" height="30" as="geometry" />
        </mxCell>
        <mxCell id="seowYHQaQCigLh1WMPsB-62" value="Cant_compras" style="ellipse;whiteSpace=wrap;html=1;align=center;" parent="1" vertex="1">
          <mxGeometry x="770" y="50" width="80" height="30" as="geometry" />
        </mxCell>
        <mxCell id="seowYHQaQCigLh1WMPsB-64" value="Telefono" style="ellipse;shape=doubleEllipse;margin=3;whiteSpace=wrap;html=1;align=center;" parent="1" vertex="1">
          <mxGeometry x="732" y="230" width="90" height="35" as="geometry" />
        </mxCell>
        <mxCell id="seowYHQaQCigLh1WMPsB-65" value="" style="endArrow=none;html=1;rounded=0;entryX=0;entryY=0.5;entryDx=0;entryDy=0;exitX=1;exitY=1;exitDx=0;exitDy=0;" parent="1" source="seowYHQaQCigLh1WMPsB-1" target="seowYHQaQCigLh1WMPsB-64" edge="1">
          <mxGeometry relative="1" as="geometry">
            <mxPoint x="330" y="390" as="sourcePoint" />
            <mxPoint x="490" y="390" as="targetPoint" />
          </mxGeometry>
        </mxCell>
        <mxCell id="seowYHQaQCigLh1WMPsB-66" value="" style="endArrow=none;html=1;rounded=0;entryX=0.388;entryY=1.067;entryDx=0;entryDy=0;entryPerimeter=0;exitX=0.688;exitY=0.067;exitDx=0;exitDy=0;exitPerimeter=0;" parent="1" source="seowYHQaQCigLh1WMPsB-50" target="seowYHQaQCigLh1WMPsB-62" edge="1">
          <mxGeometry relative="1" as="geometry">
            <mxPoint x="330" y="390" as="sourcePoint" />
            <mxPoint x="490" y="390" as="targetPoint" />
          </mxGeometry>
        </mxCell>
        <mxCell id="seowYHQaQCigLh1WMPsB-67" value="" style="endArrow=none;html=1;rounded=0;entryX=0.5;entryY=1;entryDx=0;entryDy=0;exitX=0.338;exitY=0.033;exitDx=0;exitDy=0;exitPerimeter=0;" parent="1" source="seowYHQaQCigLh1WMPsB-50" target="seowYHQaQCigLh1WMPsB-61" edge="1">
          <mxGeometry relative="1" as="geometry">
            <mxPoint x="330" y="390" as="sourcePoint" />
            <mxPoint x="490" y="390" as="targetPoint" />
          </mxGeometry>
        </mxCell>
        <mxCell id="seowYHQaQCigLh1WMPsB-68" value="" style="endArrow=none;html=1;rounded=0;exitX=1;exitY=0.5;exitDx=0;exitDy=0;entryX=0;entryY=0.5;entryDx=0;entryDy=0;" parent="1" source="mmZKojDoR1NTbuqDDgLx-2" target="seowYHQaQCigLh1WMPsB-4" edge="1">
          <mxGeometry relative="1" as="geometry">
            <mxPoint x="350" y="390" as="sourcePoint" />
            <mxPoint x="490" y="390" as="targetPoint" />
          </mxGeometry>
        </mxCell>
        <mxCell id="seowYHQaQCigLh1WMPsB-70" value="" style="endArrow=none;html=1;rounded=0;entryX=0;entryY=0.75;entryDx=0;entryDy=0;exitX=1;exitY=0.5;exitDx=0;exitDy=0;" parent="1" source="seowYHQaQCigLh1WMPsB-51" target="seowYHQaQCigLh1WMPsB-2" edge="1">
          <mxGeometry relative="1" as="geometry">
            <mxPoint x="330" y="490" as="sourcePoint" />
            <mxPoint x="490" y="490" as="targetPoint" />
          </mxGeometry>
        </mxCell>
        <mxCell id="seowYHQaQCigLh1WMPsB-71" value="" style="endArrow=none;html=1;rounded=0;entryX=0;entryY=1;entryDx=0;entryDy=0;exitX=0.714;exitY=0;exitDx=0;exitDy=0;exitPerimeter=0;" parent="1" source="seowYHQaQCigLh1WMPsB-52" target="seowYHQaQCigLh1WMPsB-2" edge="1">
          <mxGeometry relative="1" as="geometry">
            <mxPoint x="330" y="490" as="sourcePoint" />
            <mxPoint x="490" y="490" as="targetPoint" />
          </mxGeometry>
        </mxCell>
        <mxCell id="seowYHQaQCigLh1WMPsB-72" value="" style="endArrow=none;html=1;rounded=0;entryX=0.6;entryY=1.017;entryDx=0;entryDy=0;entryPerimeter=0;exitX=0.5;exitY=0;exitDx=0;exitDy=0;" parent="1" source="seowYHQaQCigLh1WMPsB-53" target="seowYHQaQCigLh1WMPsB-2" edge="1">
          <mxGeometry relative="1" as="geometry">
            <mxPoint x="330" y="490" as="sourcePoint" />
            <mxPoint x="490" y="490" as="targetPoint" />
          </mxGeometry>
        </mxCell>
        <mxCell id="seowYHQaQCigLh1WMPsB-73" value="" style="endArrow=none;html=1;rounded=0;entryX=0;entryY=1;entryDx=0;entryDy=0;exitX=0.76;exitY=0.033;exitDx=0;exitDy=0;exitPerimeter=0;" parent="1" source="seowYHQaQCigLh1WMPsB-75" target="seowYHQaQCigLh1WMPsB-53" edge="1">
          <mxGeometry relative="1" as="geometry">
            <mxPoint x="589.04" y="740.99" as="sourcePoint" />
            <mxPoint x="490" y="490" as="targetPoint" />
          </mxGeometry>
        </mxCell>
        <mxCell id="seowYHQaQCigLh1WMPsB-74" value="" style="endArrow=none;html=1;rounded=0;entryX=0.7;entryY=1;entryDx=0;entryDy=0;entryPerimeter=0;exitX=0.5;exitY=0;exitDx=0;exitDy=0;" parent="1" source="seowYHQaQCigLh1WMPsB-55" target="seowYHQaQCigLh1WMPsB-53" edge="1">
          <mxGeometry relative="1" as="geometry">
            <mxPoint x="330" y="490" as="sourcePoint" />
            <mxPoint x="490" y="490" as="targetPoint" />
          </mxGeometry>
        </mxCell>
        <mxCell id="seowYHQaQCigLh1WMPsB-75" value="Telefono" style="ellipse;shape=doubleEllipse;margin=3;whiteSpace=wrap;html=1;align=center;" parent="1" vertex="1">
          <mxGeometry x="521.5" y="750" width="83.5" height="30" as="geometry" />
        </mxCell>
        <mxCell id="seowYHQaQCigLh1WMPsB-76" value="Sabor" style="ellipse;whiteSpace=wrap;html=1;align=center;" parent="1" vertex="1">
          <mxGeometry x="730" y="325" width="80" height="30" as="geometry" />
        </mxCell>
        <mxCell id="seowYHQaQCigLh1WMPsB-77" value="Precio" style="ellipse;whiteSpace=wrap;html=1;align=center;" parent="1" vertex="1">
          <mxGeometry x="742" y="390" width="80" height="30" as="geometry" />
        </mxCell>
        <mxCell id="seowYHQaQCigLh1WMPsB-78" value="&lt;u&gt;Codigo&lt;/u&gt;" style="ellipse;whiteSpace=wrap;html=1;align=center;" parent="1" vertex="1">
          <mxGeometry x="720" y="462.5" width="70" height="30" as="geometry" />
        </mxCell>
        <mxCell id="seowYHQaQCigLh1WMPsB-79" value="Fecha_venc" style="ellipse;whiteSpace=wrap;html=1;align=center;" parent="1" vertex="1">
          <mxGeometry x="490" y="460" width="80" height="30" as="geometry" />
        </mxCell>
        <mxCell id="seowYHQaQCigLh1WMPsB-80" value="" style="endArrow=none;html=1;rounded=0;entryX=0;entryY=1;entryDx=0;entryDy=0;exitX=0.75;exitY=0.1;exitDx=0;exitDy=0;exitPerimeter=0;" parent="1" source="seowYHQaQCigLh1WMPsB-79" target="mmZKojDoR1NTbuqDDgLx-1" edge="1">
          <mxGeometry relative="1" as="geometry">
            <mxPoint x="330" y="390" as="sourcePoint" />
            <mxPoint x="490" y="390" as="targetPoint" />
          </mxGeometry>
        </mxCell>
        <mxCell id="seowYHQaQCigLh1WMPsB-81" value="" style="endArrow=none;html=1;rounded=0;entryX=1;entryY=1;entryDx=0;entryDy=0;exitX=0;exitY=0;exitDx=0;exitDy=0;" parent="1" source="seowYHQaQCigLh1WMPsB-78" target="mmZKojDoR1NTbuqDDgLx-1" edge="1">
          <mxGeometry relative="1" as="geometry">
            <mxPoint x="330" y="390" as="sourcePoint" />
            <mxPoint x="490" y="390" as="targetPoint" />
          </mxGeometry>
        </mxCell>
        <mxCell id="seowYHQaQCigLh1WMPsB-82" value="" style="endArrow=none;html=1;rounded=0;entryX=1;entryY=0.5;entryDx=0;entryDy=0;exitX=0;exitY=0.5;exitDx=0;exitDy=0;" parent="1" source="seowYHQaQCigLh1WMPsB-77" target="mmZKojDoR1NTbuqDDgLx-1" edge="1">
          <mxGeometry relative="1" as="geometry">
            <mxPoint x="330" y="390" as="sourcePoint" />
            <mxPoint x="490" y="390" as="targetPoint" />
          </mxGeometry>
        </mxCell>
        <mxCell id="seowYHQaQCigLh1WMPsB-83" value="" style="endArrow=none;html=1;rounded=0;entryX=1;entryY=0;entryDx=0;entryDy=0;exitX=0.013;exitY=0.767;exitDx=0;exitDy=0;exitPerimeter=0;" parent="1" source="seowYHQaQCigLh1WMPsB-76" target="mmZKojDoR1NTbuqDDgLx-1" edge="1">
          <mxGeometry relative="1" as="geometry">
            <mxPoint x="330" y="390" as="sourcePoint" />
            <mxPoint x="490" y="390" as="targetPoint" />
          </mxGeometry>
        </mxCell>
        <mxCell id="seowYHQaQCigLh1WMPsB-84" value="Dia" style="ellipse;whiteSpace=wrap;html=1;align=center;" parent="1" vertex="1">
          <mxGeometry x="414" y="460" width="50" height="30" as="geometry" />
        </mxCell>
        <mxCell id="seowYHQaQCigLh1WMPsB-85" value="Ubicacion" style="ellipse;whiteSpace=wrap;html=1;align=center;" parent="1" vertex="1">
          <mxGeometry x="760" y="612.5" width="80" height="35" as="geometry" />
        </mxCell>
        <mxCell id="seowYHQaQCigLh1WMPsB-86" value="AÃ±o" style="ellipse;whiteSpace=wrap;html=1;align=center;" parent="1" vertex="1">
          <mxGeometry x="471.5" y="517.5" width="50" height="20" as="geometry" />
        </mxCell>
        <mxCell id="seowYHQaQCigLh1WMPsB-87" value="" style="endArrow=none;html=1;rounded=0;entryX=0;entryY=0.5;entryDx=0;entryDy=0;exitX=1;exitY=0.5;exitDx=0;exitDy=0;" parent="1" source="seowYHQaQCigLh1WMPsB-84" target="seowYHQaQCigLh1WMPsB-79" edge="1">
          <mxGeometry relative="1" as="geometry">
            <mxPoint x="330" y="390" as="sourcePoint" />
            <mxPoint x="490" y="390" as="targetPoint" />
          </mxGeometry>
        </mxCell>
        <mxCell id="seowYHQaQCigLh1WMPsB-88" value="" style="endArrow=none;html=1;rounded=0;entryX=0.288;entryY=0.967;entryDx=0;entryDy=0;entryPerimeter=0;exitX=0.65;exitY=-0.025;exitDx=0;exitDy=0;exitPerimeter=0;" parent="1" source="seowYHQaQCigLh1WMPsB-86" target="seowYHQaQCigLh1WMPsB-79" edge="1">
          <mxGeometry relative="1" as="geometry">
            <mxPoint x="330" y="390" as="sourcePoint" />
            <mxPoint x="490" y="390" as="targetPoint" />
          </mxGeometry>
        </mxCell>
        <mxCell id="seowYHQaQCigLh1WMPsB-93" value="Mes" style="ellipse;whiteSpace=wrap;html=1;align=center;" parent="1" vertex="1">
          <mxGeometry x="94" y="80" width="60" height="30" as="geometry" />
        </mxCell>
        <mxCell id="seowYHQaQCigLh1WMPsB-94" value="Hora" style="ellipse;whiteSpace=wrap;html=1;align=center;" parent="1" vertex="1">
          <mxGeometry x="30" y="432.5" width="70" height="30" as="geometry" />
        </mxCell>
        <mxCell id="seowYHQaQCigLh1WMPsB-95" value="Dia" style="ellipse;whiteSpace=wrap;html=1;align=center;" parent="1" vertex="1">
          <mxGeometry x="58" y="505" width="71" height="32.5" as="geometry" />
        </mxCell>
        <mxCell id="seowYHQaQCigLh1WMPsB-96" value="Dia" style="ellipse;whiteSpace=wrap;html=1;align=center;" parent="1" vertex="1">
          <mxGeometry x="50" y="120" width="50" height="30" as="geometry" />
        </mxCell>
        <mxCell id="seowYHQaQCigLh1WMPsB-97" value="Hora" style="ellipse;whiteSpace=wrap;html=1;align=center;" parent="1" vertex="1">
          <mxGeometry x="58" y="172.5" width="65" height="25" as="geometry" />
        </mxCell>
        <mxCell id="seowYHQaQCigLh1WMPsB-98" value="AÃ±o" style="ellipse;whiteSpace=wrap;html=1;align=center;" parent="1" vertex="1">
          <mxGeometry x="164.5" y="80" width="60" height="30" as="geometry" />
        </mxCell>
        <mxCell id="seowYHQaQCigLh1WMPsB-99" value="" style="endArrow=none;html=1;rounded=0;entryX=0.717;entryY=1.067;entryDx=0;entryDy=0;entryPerimeter=0;exitX=0.272;exitY=0.033;exitDx=0;exitDy=0;exitPerimeter=0;" parent="1" source="seowYHQaQCigLh1WMPsB-35" target="seowYHQaQCigLh1WMPsB-93" edge="1">
          <mxGeometry relative="1" as="geometry">
            <mxPoint x="330" y="390" as="sourcePoint" />
            <mxPoint x="490" y="390" as="targetPoint" />
          </mxGeometry>
        </mxCell>
        <mxCell id="seowYHQaQCigLh1WMPsB-100" value="" style="endArrow=none;html=1;rounded=0;entryX=0.5;entryY=1;entryDx=0;entryDy=0;exitX=0.63;exitY=0;exitDx=0;exitDy=0;exitPerimeter=0;" parent="1" source="seowYHQaQCigLh1WMPsB-35" target="seowYHQaQCigLh1WMPsB-98" edge="1">
          <mxGeometry relative="1" as="geometry">
            <mxPoint x="330" y="390" as="sourcePoint" />
            <mxPoint x="490" y="390" as="targetPoint" />
          </mxGeometry>
        </mxCell>
        <mxCell id="seowYHQaQCigLh1WMPsB-101" value="Fecha_naci" style="ellipse;whiteSpace=wrap;html=1;align=center;" parent="1" vertex="1">
          <mxGeometry x="780" y="172.5" width="80" height="30" as="geometry" />
        </mxCell>
        <mxCell id="seowYHQaQCigLh1WMPsB-102" value="Fecha_naci" style="ellipse;whiteSpace=wrap;html=1;align=center;" parent="1" vertex="1">
          <mxGeometry x="164.5" y="287.5" width="80" height="30" as="geometry" />
        </mxCell>
        <mxCell id="seowYHQaQCigLh1WMPsB-103" value="" style="endArrow=none;html=1;rounded=0;exitX=0.694;exitY=1.083;exitDx=0;exitDy=0;exitPerimeter=0;entryX=0.25;entryY=0;entryDx=0;entryDy=0;" parent="1" source="seowYHQaQCigLh1WMPsB-102" target="mmZKojDoR1NTbuqDDgLx-2" edge="1">
          <mxGeometry relative="1" as="geometry">
            <mxPoint x="330" y="390" as="sourcePoint" />
            <mxPoint x="490" y="390" as="targetPoint" />
          </mxGeometry>
        </mxCell>
        <mxCell id="seowYHQaQCigLh1WMPsB-104" value="" style="endArrow=none;html=1;rounded=0;entryX=1;entryY=0.5;entryDx=0;entryDy=0;exitX=0;exitY=0.5;exitDx=0;exitDy=0;" parent="1" source="seowYHQaQCigLh1WMPsB-101" target="seowYHQaQCigLh1WMPsB-1" edge="1">
          <mxGeometry relative="1" as="geometry">
            <mxPoint x="330" y="390" as="sourcePoint" />
            <mxPoint x="490" y="390" as="targetPoint" />
          </mxGeometry>
        </mxCell>
        <mxCell id="seowYHQaQCigLh1WMPsB-105" value="Edad" style="ellipse;whiteSpace=wrap;html=1;align=center;dashed=1;" parent="1" vertex="1">
          <mxGeometry x="890" y="120" width="60" height="25" as="geometry" />
        </mxCell>
        <mxCell id="seowYHQaQCigLh1WMPsB-106" value="Edad" style="ellipse;whiteSpace=wrap;html=1;align=center;dashed=1;" parent="1" vertex="1">
          <mxGeometry x="79" y="270" width="60" height="30" as="geometry" />
        </mxCell>
        <mxCell id="seowYHQaQCigLh1WMPsB-107" value="" style="endArrow=none;html=1;rounded=0;exitX=1;exitY=1;exitDx=0;exitDy=0;entryX=0;entryY=0.5;entryDx=0;entryDy=0;" parent="1" source="seowYHQaQCigLh1WMPsB-106" target="seowYHQaQCigLh1WMPsB-102" edge="1">
          <mxGeometry relative="1" as="geometry">
            <mxPoint x="330" y="390" as="sourcePoint" />
            <mxPoint x="490" y="390" as="targetPoint" />
          </mxGeometry>
        </mxCell>
        <mxCell id="seowYHQaQCigLh1WMPsB-108" value="" style="endArrow=none;html=1;rounded=0;entryX=0;entryY=1;entryDx=0;entryDy=0;exitX=1;exitY=0;exitDx=0;exitDy=0;" parent="1" source="seowYHQaQCigLh1WMPsB-101" target="seowYHQaQCigLh1WMPsB-105" edge="1">
          <mxGeometry relative="1" as="geometry">
            <mxPoint x="330" y="390" as="sourcePoint" />
            <mxPoint x="490" y="390" as="targetPoint" />
          </mxGeometry>
        </mxCell>
        <mxCell id="seowYHQaQCigLh1WMPsB-109" value="" style="endArrow=none;html=1;rounded=0;entryX=-0.025;entryY=0.329;entryDx=0;entryDy=0;entryPerimeter=0;exitX=1;exitY=0.5;exitDx=0;exitDy=0;" parent="1" source="seowYHQaQCigLh1WMPsB-2" target="seowYHQaQCigLh1WMPsB-85" edge="1">
          <mxGeometry relative="1" as="geometry">
            <mxPoint x="330" y="490" as="sourcePoint" />
            <mxPoint x="490" y="490" as="targetPoint" />
          </mxGeometry>
        </mxCell>
        <mxCell id="seowYHQaQCigLh1WMPsB-110" value="Direccion" style="ellipse;whiteSpace=wrap;html=1;align=center;" parent="1" vertex="1">
          <mxGeometry x="830" y="680" width="90" height="30" as="geometry" />
        </mxCell>
        <mxCell id="seowYHQaQCigLh1WMPsB-111" value="Ciudad" style="ellipse;whiteSpace=wrap;html=1;align=center;" parent="1" vertex="1">
          <mxGeometry x="822" y="545" width="78" height="35" as="geometry" />
        </mxCell>
        <mxCell id="seowYHQaQCigLh1WMPsB-112" value="" style="endArrow=none;html=1;rounded=0;entryX=0;entryY=1;entryDx=0;entryDy=0;" parent="1" source="seowYHQaQCigLh1WMPsB-85" target="seowYHQaQCigLh1WMPsB-111" edge="1">
          <mxGeometry relative="1" as="geometry">
            <mxPoint x="330" y="490" as="sourcePoint" />
            <mxPoint x="490" y="490" as="targetPoint" />
          </mxGeometry>
        </mxCell>
        <mxCell id="seowYHQaQCigLh1WMPsB-114" value="" style="endArrow=none;html=1;rounded=0;entryX=0;entryY=0;entryDx=0;entryDy=0;exitX=1;exitY=1;exitDx=0;exitDy=0;" parent="1" source="seowYHQaQCigLh1WMPsB-85" target="seowYHQaQCigLh1WMPsB-110" edge="1">
          <mxGeometry relative="1" as="geometry">
            <mxPoint x="330" y="490" as="sourcePoint" />
            <mxPoint x="490" y="490" as="targetPoint" />
          </mxGeometry>
        </mxCell>
        <mxCell id="seowYHQaQCigLh1WMPsB-116" value="1,1" style="text;strokeColor=none;fillColor=none;spacingLeft=4;spacingRight=4;overflow=hidden;rotatable=0;points=[[0,0.5],[1,0.5]];portConstraint=eastwest;fontSize=12;whiteSpace=wrap;html=1;" parent="1" vertex="1">
          <mxGeometry x="548.25" y="160" width="30" height="20" as="geometry" />
        </mxCell>
        <mxCell id="seowYHQaQCigLh1WMPsB-117" value="1,n" style="text;strokeColor=none;fillColor=none;spacingLeft=4;spacingRight=4;overflow=hidden;rotatable=0;points=[[0,0.5],[1,0.5]];portConstraint=eastwest;fontSize=12;whiteSpace=wrap;html=1;" parent="1" vertex="1">
          <mxGeometry x="359" y="160" width="30" height="20" as="geometry" />
        </mxCell>
        <mxCell id="seowYHQaQCigLh1WMPsB-118" value="0,1" style="text;strokeColor=none;fillColor=none;spacingLeft=4;spacingRight=4;overflow=hidden;rotatable=0;points=[[0,0.5],[1,0.5]];portConstraint=eastwest;fontSize=12;whiteSpace=wrap;html=1;" parent="1" vertex="1">
          <mxGeometry x="300" y="342.5" width="30" height="20" as="geometry" />
        </mxCell>
        <mxCell id="seowYHQaQCigLh1WMPsB-120" value="1,n" style="text;strokeColor=none;fillColor=none;spacingLeft=4;spacingRight=4;overflow=hidden;rotatable=0;points=[[0,0.5],[1,0.5]];portConstraint=eastwest;fontSize=12;whiteSpace=wrap;html=1;" parent="1" vertex="1">
          <mxGeometry x="300" y="210" width="30" height="20" as="geometry" />
        </mxCell>
        <mxCell id="seowYHQaQCigLh1WMPsB-121" value="0,n" style="text;strokeColor=none;fillColor=none;spacingLeft=4;spacingRight=4;overflow=hidden;rotatable=0;points=[[0,0.5],[1,0.5]];portConstraint=eastwest;fontSize=12;whiteSpace=wrap;html=1;" parent="1" vertex="1">
          <mxGeometry x="548.25" y="370" width="30" height="20" as="geometry" />
        </mxCell>
        <mxCell id="seowYHQaQCigLh1WMPsB-122" value="0,n" style="text;strokeColor=none;fillColor=none;spacingLeft=4;spacingRight=4;overflow=hidden;rotatable=0;points=[[0,0.5],[1,0.5]];portConstraint=eastwest;fontSize=12;whiteSpace=wrap;html=1;" parent="1" vertex="1">
          <mxGeometry x="358.5" y="370" width="30" height="20" as="geometry" />
        </mxCell>
        <mxCell id="seowYHQaQCigLh1WMPsB-123" value="1,n" style="text;strokeColor=none;fillColor=none;spacingLeft=4;spacingRight=4;overflow=hidden;rotatable=0;points=[[0,0.5],[1,0.5]];portConstraint=eastwest;fontSize=12;whiteSpace=wrap;html=1;" parent="1" vertex="1">
          <mxGeometry x="610" y="560" width="30" height="20" as="geometry" />
        </mxCell>
        <mxCell id="seowYHQaQCigLh1WMPsB-124" value="1,n" style="text;strokeColor=none;fillColor=none;spacingLeft=4;spacingRight=4;overflow=hidden;rotatable=0;points=[[0,0.5],[1,0.5]];portConstraint=eastwest;fontSize=12;whiteSpace=wrap;html=1;" parent="1" vertex="1">
          <mxGeometry x="610" y="425" width="30" height="20" as="geometry" />
        </mxCell>
        <mxCell id="seowYHQaQCigLh1WMPsB-125" value="1,n" style="text;strokeColor=none;fillColor=none;spacingLeft=4;spacingRight=4;overflow=hidden;rotatable=0;points=[[0,0.5],[1,0.5]];portConstraint=eastwest;fontSize=12;whiteSpace=wrap;html=1;" parent="1" vertex="1">
          <mxGeometry x="610" y="342.5" width="30" height="20" as="geometry" />
        </mxCell>
        <mxCell id="seowYHQaQCigLh1WMPsB-126" value="0,n" style="text;strokeColor=none;fillColor=none;spacingLeft=4;spacingRight=4;overflow=hidden;rotatable=0;points=[[0,0.5],[1,0.5]];portConstraint=eastwest;fontSize=12;whiteSpace=wrap;html=1;" parent="1" vertex="1">
          <mxGeometry x="610" y="215" width="30" height="20" as="geometry" />
        </mxCell>
        <mxCell id="fZC7EETyhlRLTBDbsYK9-1" value="Sucursal" style="rounded=0;whiteSpace=wrap;html=1;" parent="1" vertex="1">
          <mxGeometry x="238.5" y="585" width="120" height="60" as="geometry" />
        </mxCell>
        <mxCell id="fZC7EETyhlRLTBDbsYK9-2" value="Trabaja" style="rhombus;whiteSpace=wrap;html=1;" parent="1" vertex="1">
          <mxGeometry x="259" y="470" width="80" height="80" as="geometry" />
        </mxCell>
        <mxCell id="fZC7EETyhlRLTBDbsYK9-3" value="" style="endArrow=none;html=1;rounded=0;exitX=0.5;exitY=0;exitDx=0;exitDy=0;entryX=0.5;entryY=1;entryDx=0;entryDy=0;" parent="1" source="fZC7EETyhlRLTBDbsYK9-1" target="fZC7EETyhlRLTBDbsYK9-2" edge="1">
          <mxGeometry width="50" height="50" relative="1" as="geometry">
            <mxPoint x="700" y="700" as="sourcePoint" />
            <mxPoint x="750" y="650" as="targetPoint" />
          </mxGeometry>
        </mxCell>
        <mxCell id="fZC7EETyhlRLTBDbsYK9-4" value="" style="endArrow=none;html=1;rounded=0;exitX=0.5;exitY=0;exitDx=0;exitDy=0;entryX=0.5;entryY=1;entryDx=0;entryDy=0;" parent="1" source="fZC7EETyhlRLTBDbsYK9-2" target="mmZKojDoR1NTbuqDDgLx-2" edge="1">
          <mxGeometry width="50" height="50" relative="1" as="geometry">
            <mxPoint x="700" y="700" as="sourcePoint" />
            <mxPoint x="750" y="650" as="targetPoint" />
          </mxGeometry>
        </mxCell>
        <mxCell id="7r7K5rioODHgm67cBRlr-1" value="Ubicacion" style="ellipse;whiteSpace=wrap;html=1;align=center;" vertex="1" parent="1">
          <mxGeometry x="123" y="665" width="90" height="35" as="geometry" />
        </mxCell>
        <mxCell id="7r7K5rioODHgm67cBRlr-2" value="" style="ellipse;whiteSpace=wrap;html=1;align=center;" vertex="1" parent="1">
          <mxGeometry x="94" y="595" width="86" height="35" as="geometry" />
        </mxCell>
        <mxCell id="7r7K5rioODHgm67cBRlr-4" value="Delivery" style="rounded=0;whiteSpace=wrap;html=1;" vertex="1" parent="1">
          <mxGeometry x="238.5" y="830" width="120" height="60" as="geometry" />
        </mxCell>
        <mxCell id="7r7K5rioODHgm67cBRlr-7" value="" style="endArrow=none;html=1;rounded=0;exitX=0.5;exitY=0;exitDx=0;exitDy=0;entryX=0.5;entryY=1;entryDx=0;entryDy=0;" edge="1" parent="1" source="7r7K5rioODHgm67cBRlr-4" target="7r7K5rioODHgm67cBRlr-9">
          <mxGeometry width="50" height="50" relative="1" as="geometry">
            <mxPoint x="700" y="500" as="sourcePoint" />
            <mxPoint x="299" y="710" as="targetPoint" />
          </mxGeometry>
        </mxCell>
        <mxCell id="7r7K5rioODHgm67cBRlr-9" value="Realiza" style="rhombus;whiteSpace=wrap;html=1;" vertex="1" parent="1">
          <mxGeometry x="258.5" y="700" width="80" height="80" as="geometry" />
        </mxCell>
        <mxCell id="7r7K5rioODHgm67cBRlr-10" value="" style="endArrow=none;html=1;rounded=0;exitX=0.5;exitY=0;exitDx=0;exitDy=0;entryX=0.5;entryY=1;entryDx=0;entryDy=0;" edge="1" parent="1" source="7r7K5rioODHgm67cBRlr-9" target="fZC7EETyhlRLTBDbsYK9-1">
          <mxGeometry width="50" height="50" relative="1" as="geometry">
            <mxPoint x="700" y="800" as="sourcePoint" />
            <mxPoint x="750" y="750" as="targetPoint" />
          </mxGeometry>
        </mxCell>
        <mxCell id="7r7K5rioODHgm67cBRlr-11" value="" style="rounded=0;whiteSpace=wrap;html=1;" vertex="1" parent="1">
          <mxGeometry x="940" y="365" width="120" height="60" as="geometry" />
        </mxCell>
      </root>
    </mxGraphModel>
  </diagram>
</mxfile>
